<svg width="103" height="67" viewBox="0 0 103 67" fill="none" xmlns="http://www.w3.org/2000/svg">
<path fill-rule="evenodd" clip-rule="evenodd" d="M15.5 49.7C13.5 48.5667 11.5667 46.9333 9.7 44.8L0 55.5C1.53333 57.5 3.2 59.2 5 60.6C6.8 61.9333 8.66667 63.0333 10.6 63.9C12.5333 64.7 14.4667 65.2667 16.4 65.6C18.4 66 20.3 66.2 22.1 66.2C26.7667 66.2 30.7 65.5667 33.9 64.3C37.1667 63.0333 39.8 61.3333 41.8 59.2C43.8 57 45.2333 54.4667 46.1 51.6C46.9667 48.7333 47.4 45.6667 47.4 42.4V0H5.5V14.4H30.2V41C30.2 43.0667 30 44.7667 29.6 46.1C29.2667 47.4333 28.7 48.5 27.9 49.3C27.1667 50.1 26.2667 50.6667 25.2 51C24.1333 51.2667 22.9 51.4 21.5 51.4C19.5 51.4 17.5 50.8333 15.5 49.7ZM71.7 29.6H65.9V13.6H71.7C75.1 13.6 77.6667 14.1333 79.4 15.2C81.2 16.2667 82.1 18.2 82.1 21C82.1 26.7333 78.6333 29.6 71.7 29.6ZM72.1 43.2L83.3 65H102.5L88.4 39.8C91.6 38.0667 94.1333 35.6667 96 32.6C97.9333 29.5333 98.9 25.6667 98.9 21C98.9 16.9333 98.2 13.5667 96.8 10.9C95.4 8.16667 93.5 6 91.1 4.4C88.7667 2.8 86 1.66667 82.8 0.999999C79.6667 0.333333 76.3667 0 72.9 0H48.7V65H65.9V43.2H72.1Z" fill="#699792"/>
</svg>
